<?xml version="1.0" encoding="UTF-8"?>
<svg id="Layer_2" data-name="Layer 2" xmlns="http://www.w3.org/2000/svg" viewBox="0 0 472.89 394.1">
  <defs>
    <style>
      .cls-1 {
        fill: #028db3;
      }

      .cls-1, .cls-2, .cls-3, .cls-4, .cls-5, .cls-6, .cls-7, .cls-8, .cls-9, .cls-10, .cls-11, .cls-12, .cls-13, .cls-14, .cls-15, .cls-16, .cls-17, .cls-18, .cls-19, .cls-20, .cls-21 {
        stroke-width: 0px;
      }

      .cls-2 {
        fill: #03c1cc;
      }

      .cls-3 {
        fill: #058dca;
      }

      .cls-4 {
        fill: #03cad7;
      }

      .cls-5 {
        fill: #02afc1;
      }

      .cls-6 {
        fill: #03aacf;
      }

      .cls-7 {
        fill: #0368a2;
      }

      .cls-8 {
        fill: #0290bb;
      }

      .cls-9 {
        fill: #04b8d6;
      }

      .cls-10 {
        fill: #02a7c1;
      }

      .cls-11 {
        fill: #0272a0;
      }

      .cls-12 {
        fill: #217fbd;
      }

      .cls-13 {
        fill: #0567bb;
      }

      .cls-14 {
        fill: #02b2cb;
      }

      .cls-15 {
        fill: #0282bb;
      }

      .cls-16 {
        fill: #0380a9;
      }

      .cls-17 {
        fill: #0283b3;
      }

      .cls-18 {
        fill: #04d4de;
      }

      .cls-19 {
        fill: #055eb4;
      }

      .cls-20 {
        fill: #02a7c5;
      }

      .cls-21 {
        fill: #0365ad;
      }
    </style>
  </defs>
  <g id="Layer_1-2" data-name="Layer 1">
    <g>
      <polygon class="cls-11" points="236.43 315.29 315.24 394.1 236.43 394.1 236.43 315.29"/>
      <polygon class="cls-7" points="236.43 394.1 157.62 315.29 236.43 315.29 236.43 394.1"/>
      <polygon class="cls-21" points="157.62 394.1 78.81 315.29 157.62 315.29 157.62 394.1"/>
      <polygon class="cls-21" points="394.08 393.95 315.27 315.14 394.08 315.14 394.08 393.95"/>
      <polygon class="cls-19" points="78.81 394.1 0 315.29 78.81 315.29 78.81 394.1"/>
      <polygon class="cls-13" points="0 315.29 78.81 394.1 0 394.1 0 315.29"/>
      <polygon class="cls-13" points="78.95 315.11 157.76 393.92 78.95 393.92 78.95 315.11"/>
      <polygon class="cls-16" points="315.24 315.29 236.43 236.48 315.24 236.48 315.24 315.29"/>
      <polygon class="cls-1" points="236.43 236.48 315.24 315.29 236.43 315.29 236.43 236.48"/>
      <polygon class="cls-17" points="236.43 315.29 157.62 236.48 236.43 236.48 236.43 315.29"/>
      <polygon class="cls-8" points="157.62 236.48 236.43 315.29 157.62 315.29 157.62 236.48"/>
      <polygon class="cls-15" points="157.62 315.29 78.81 236.48 157.62 236.48 157.62 315.29"/>
      <polygon class="cls-3" points="0 236.48 78.81 315.29 0 315.29 0 236.48"/>
      <polygon class="cls-12" points="394.08 236.33 472.89 315.14 394.08 315.14 394.08 236.33"/>
      <polygon class="cls-12" points="314.72 78.76 393.52 157.57 314.72 157.57 314.72 78.76"/>
      <polygon class="cls-5" points="236.43 157.67 315.24 236.48 236.43 236.48 236.43 157.67"/>
      <polygon class="cls-10" points="236.43 236.48 157.62 157.67 236.43 157.67 236.43 236.48"/>
      <polygon class="cls-20" points="157.62 236.48 78.81 157.67 157.62 157.67 157.62 236.48"/>
      <polygon class="cls-14" points="78.81 157.67 157.62 236.48 78.81 236.48 78.81 157.67"/>
      <polygon class="cls-6" points="78.81 236.48 0 157.67 78.81 157.67 78.81 236.48"/>
      <polygon class="cls-9" points="0 157.67 78.81 236.48 0 236.48 0 157.67"/>
      <polygon class="cls-2" points="157.62 157.67 78.81 78.86 157.62 78.86 157.62 157.67"/>
      <polygon class="cls-2" points="236.51 157.59 157.71 78.78 236.51 78.78 236.51 157.59"/>
      <polygon class="cls-4" points="78.81 157.67 0 78.86 78.81 78.86 78.81 157.67"/>
      <polygon class="cls-4" points="78.95 78.81 .14 0 78.95 0 78.95 78.81"/>
      <polygon class="cls-18" points="0 78.86 78.81 157.67 0 157.67 0 78.86"/>
    </g>
  </g>
</svg>