<?xml version="1.0" encoding="UTF-8"?>
<svg id="Layer_2" data-name="Layer 2" xmlns="http://www.w3.org/2000/svg" viewBox="0 0 675.21 675.26">
  <defs>
    <style>
      .cls-1 {
        fill: #04b8d6;
      }

      .cls-1, .cls-2, .cls-3, .cls-4, .cls-5, .cls-6, .cls-7, .cls-8, .cls-9, .cls-10, .cls-11, .cls-12, .cls-13, .cls-14, .cls-15, .cls-16, .cls-17, .cls-18, .cls-19, .cls-20, .cls-21, .cls-22 {
        opacity: .2;
        stroke-width: 0px;
      }

      .cls-2 {
        fill: #02a7c5;
      }

      .cls-3 {
        fill: #02b2cb;
      }

      .cls-4 {
        fill: #0283b3;
      }

      .cls-5 {
        fill: #0980c6;
      }

      .cls-6 {
        fill: #0cd3e4;
      }

      .cls-7 {
        fill: #0290bb;
      }

      .cls-8 {
        fill: #02afc1;
      }

      .cls-9 {
        fill: #03aacf;
      }

      .cls-10 {
        fill: #04d4de;
      }

      .cls-11 {
        fill: #028db3;
      }

      .cls-12 {
        fill: #02a7c1;
      }

      .cls-13 {
        fill: #03cad7;
      }

      .cls-14 {
        fill: #0e85cb;
      }

      .cls-15 {
        fill: #0fb4da;
      }

      .cls-16 {
        fill: #09dfe8;
      }

      .cls-17 {
        fill: #0aa9d7;
      }

      .cls-18 {
        fill: #0380a9;
      }

      .cls-19 {
        fill: #058dca;
      }

      .cls-20 {
        fill: #0282bb;
      }

      .cls-21 {
        fill: #03c1cc;
      }

      .cls-22 {
        fill: #09cde1;
      }
    </style>
  </defs>
  <g id="Layer_1-2" data-name="Layer 1">
    <g>
      <polygon class="cls-18" points="0 0 135.04 135.04 0 135.04 0 0"/>
      <polygon class="cls-11" points="135.04 135.04 0 0 135.04 0 135.04 135.04"/>
      <polygon class="cls-4" points="135.04 0 270.09 135.04 135.04 135.04 135.04 0"/>
      <polygon class="cls-7" points="270.09 135.04 135.04 0 270.09 0 270.09 135.04"/>
      <polygon class="cls-20" points="270.09 0 405.13 135.04 270.09 135.04 270.09 0"/>
      <polygon class="cls-19" points="540.17 135.04 405.13 0 540.17 0 540.17 135.04"/>
      <polygon class="cls-5" points="540.17 0 675.21 135.04 540.17 135.04 540.17 0"/>
      <polygon class="cls-14" points="675.21 135.04 540.17 0 675.21 0 675.21 135.04"/>
      <polygon class="cls-8" points="135.04 270.09 0 135.04 135.04 135.04 135.04 270.09"/>
      <polygon class="cls-12" points="135.04 135.04 270.09 270.09 135.04 270.09 135.04 135.04"/>
      <polygon class="cls-2" points="270.09 135.04 405.13 270.09 270.09 270.09 270.09 135.04"/>
      <polygon class="cls-3" points="405.13 270.09 270.09 135.04 405.13 135.04 405.13 270.09"/>
      <polygon class="cls-9" points="405.13 135.04 540.17 270.09 405.13 270.09 405.13 135.04"/>
      <polygon class="cls-1" points="540.17 270.09 405.13 135.04 540.17 135.04 540.17 270.09"/>
      <polygon class="cls-17" points="540.17 135.04 675.21 270.09 540.17 270.09 540.17 135.04"/>
      <polygon class="cls-15" points="675.21 270.09 540.17 135.04 675.21 135.04 675.21 270.09"/>
      <polygon class="cls-21" points="270.09 270.09 405.13 405.13 270.09 405.13 270.09 270.09"/>
      <polygon class="cls-21" points="134.89 270.21 269.94 405.26 134.89 405.26 134.89 270.21"/>
      <polygon class="cls-13" points="405.13 270.09 540.17 405.13 405.13 405.13 405.13 270.09"/>
      <polygon class="cls-13" points="404.89 405.21 539.94 540.26 404.89 540.26 404.89 405.21"/>
      <polygon class="cls-10" points="540.17 405.13 405.13 270.09 540.17 270.09 540.17 405.13"/>
      <polygon class="cls-22" points="540.17 270.09 675.21 405.13 540.17 405.13 540.17 270.09"/>
      <polygon class="cls-22" points="539.89 405.21 674.94 540.26 539.89 540.26 539.89 405.21"/>
      <polygon class="cls-22" points="539.89 540.21 674.94 675.26 539.89 675.26 539.89 540.21"/>
      <polygon class="cls-6" points="675.21 405.13 540.17 270.09 675.21 270.09 675.21 405.13"/>
      <polygon class="cls-16" points="675.21 540.17 540.17 405.13 675.21 405.13 675.21 540.17"/>
    </g>
  </g>
</svg>