<?xml version="1.0" encoding="UTF-8"?>
<svg id="Layer_2" data-name="Layer 2" xmlns="http://www.w3.org/2000/svg" viewBox="0 0 21.36 21.36">
  <defs>
    <style>
      .cls-1 {
        fill: #333;
        fill-rule: evenodd;
        stroke-width: 0px;
      }
    </style>
  </defs>
  <g id="Layer_1-2" data-name="Layer 1">
    <path class="cls-1" d="M18.75,0C20.19,0,21.36,1.17,21.36,2.61v16.14c0,1.44-1.17,2.61-2.61,2.61H2.61c-1.44,0-2.61-1.17-2.61-2.61V2.61C0,1.17,1.17,0,2.61,0h16.14ZM6.69,17.66v-9.42h-3.13v9.42h3.13ZM17.98,17.66v-5.4c0-2.89-1.54-4.24-3.6-4.24-1.66,0-2.4.91-2.82,1.55v-1.33h-3.13c.04.88,0,9.42,0,9.42h3.13v-5.26c0-.28.02-.56.1-.76.23-.56.74-1.14,1.61-1.14,1.13,0,1.59.86,1.59,2.13v5.04h3.13ZM5.15,3.7c-1.07,0-1.77.7-1.77,1.63s.68,1.63,1.73,1.63h.02c1.09,0,1.77-.72,1.77-1.63-.02-.92-.68-1.63-1.75-1.63h0Z"/>
  </g>
</svg>